<svg width="16" height="15" xmlns="http://www.w3.org/2000/svg">

 <g>
  <title>background</title>
  <rect fill="none" id="canvas_background" height="402" width="582" y="-1" x="-1"/>
 </g>
 <g>
  <title>Layer 1</title>
  <path id="svg_1" fill="#92a58c" d="m12.99531,3.691147l-0.478,-0.372a0.365,0.365 0 0 0 -0.51,0.063l-5.356,6.877a0.32,0.32 0 0 1 -0.484,0.032l-2.19,-2.142a0.366,0.366 0 0 0 -0.516,0.005l-0.423,0.433a0.364,0.364 0 0 0 0.006,0.514l3.255,3.185a0.32,0.32 0 0 0 0.484,-0.033l6.272,-8.048a0.365,0.365 0 0 0 -0.063,-0.51l0.003,-0.004z"/>
 </g>
</svg>